# xmcd
#
# Track frame offsets: 
#        150
#        9272
#        25720
#        38687
#        57887
#        68040
#        85612
#        99132
#        113927
#        132692
#        148912
#        163305
#        178175
#        192462
#        213005
#        226675
#        241655
#        256060
#        272322
#        292157
#
# Disc length: 4052 seconds
#
# Revision: 2
# Processed by: cddbd v1.4PL0 Copyright (c) Steve Scherf et al.
# Submitted via: ExactAudioCopy v0.90b4
#
DISCID=0c0fd214
DTITLE=Ray Charles - Greatest Hits CD1
DYEAR=1997
DGENRE=Jazz
TTITLE0=Hit The Road Jack
TTITLE1=Georgia On My Mind
TTITLE2=Unchain My Heart
TTITLE3=I Can't Stop Loving You
TTITLE4=Sticks And Stones
TTITLE5=Ruby
TTITLE6=You Are My Sunshine
TTITLE7=You Don't Know Me
TTITLE8=Baby, It's Cold Outside
TTITLE9=Your Cheatin' Heart
TTITLE10=Hide Nor Hair
TTITLE11=Born To Lose
TTITLE12=One Mint Julep
TTITLE13=I've Got News For You
TTITLE14=At The Club
TTITLE15=But On The Other Hand, Baby
TTITLE16=No One
TTITLE17=Without Love (There Is Nothing)
TTITLE18=That Lucky Old Sun
TTITLE19=Don't Set Me Free
EXTD=
EXTT0=
EXTT1=
EXTT2=
EXTT3=
EXTT4=
EXTT5=
EXTT6=
EXTT7=
EXTT8=
EXTT9=
EXTT10=
EXTT11=
EXTT12=
EXTT13=
EXTT14=
EXTT15=
EXTT16=
EXTT17=
EXTT18=
EXTT19=
PLAYORDER=
